<svg width="500" height="400" viewBox="0 0 500 400" fill="none" xmlns="http://www.w3.org/2000/svg">
  <!-- Background gradient -->
  <defs>
    <linearGradient id="bgGradient" x1="0%" y1="0%" x2="100%" y2="100%">
      <stop offset="0%" style="stop-color:#E3F2FD;stop-opacity:1" />
      <stop offset="100%" style="stop-color:#BBDEFB;stop-opacity:1" />
    </linearGradient>
    <linearGradient id="screenGradient" x1="0%" y1="0%" x2="0%" y2="100%">
      <stop offset="0%" style="stop-color:#1E88E5;stop-opacity:1" />
      <stop offset="100%" style="stop-color:#1565C0;stop-opacity:1" />
    </linearGradient>
  </defs>
  
  <!-- Background circle -->
  <circle cx="250" cy="200" r="180" fill="url(#bgGradient)"/>
  
  <!-- Monitor/Dashboard -->
  <g transform="translate(100, 80)">
    <!-- Monitor stand -->
    <rect x="135" y="240" width="30" height="40" fill="#424242" rx="2"/>
    <rect x="110" y="280" width="80" height="8" fill="#616161" rx="4"/>
    
    <!-- Monitor frame -->
    <rect x="20" y="20" width="260" height="220" fill="#37474F" rx="8"/>
    
    <!-- Screen -->
    <rect x="30" y="30" width="240" height="200" fill="url(#screenGradient)" rx="4"/>
    
    <!-- Dashboard elements -->
    <!-- Header bar -->
    <rect x="40" y="40" width="220" height="20" fill="#0D47A1" rx="4"/>
    <circle cx="250" cy="50" r="4" fill="#4CAF50"/>
    <circle cx="238" cy="50" r="4" fill="#FFC107"/>
    <circle cx="226" cy="50" r="4" fill="#F44336"/>
    
    <!-- Status cards row -->
    <g transform="translate(40, 75)">
      <!-- Card 1 - Health -->
      <rect width="50" height="45" fill="#ffffff" rx="4" opacity="0.95"/>
      <circle cx="25" cy="18" r="8" fill="#4CAF50"/>
      <rect x="15" y="30" width="20" height="3" fill="#E0E0E0" rx="1"/>
      <rect x="12" y="36" width="26" height="2" fill="#E0E0E0" rx="1"/>
      
      <!-- Card 2 - Database -->
      <rect x="60" width="50" height="45" fill="#ffffff" rx="4" opacity="0.95"/>
      <rect x="78" y="12" width="14" height="14" fill="#2196F3" rx="2"/>
      <rect x="70" y="30" width="30" height="3" fill="#E0E0E0" rx="1"/>
      <rect x="73" y="36" width="24" height="2" fill="#E0E0E0" rx="1"/>
      
      <!-- Card 3 - HA -->
      <rect x="120" width="50" height="45" fill="#ffffff" rx="4" opacity="0.95"/>
      <path d="M142 12 L148 20 L136 20 Z" fill="#FF9800"/>
      <circle cx="142" cy="18" r="10" stroke="#FF9800" stroke-width="2" fill="none"/>
      <rect x="130" y="30" width="24" height="3" fill="#E0E0E0" rx="1"/>
      <rect x="133" y="36" width="18" height="2" fill="#E0E0E0" rx="1"/>
      
      <!-- Card 4 - Transactions -->
      <rect x="180" width="50" height="45" fill="#ffffff" rx="4" opacity="0.95"/>
      <path d="M195 16 L200 22 L205 18 L210 24" stroke="#00BCD4" stroke-width="2" fill="none"/>
      <rect x="190" y="30" width="30" height="3" fill="#E0E0E0" rx="1"/>
      <rect x="193" y="36" width="24" height="2" fill="#E0E0E0" rx="1"/>
    </g>
    
    <!-- Chart area -->
    <g transform="translate(40, 135)">
      <rect width="220" height="60" fill="#ffffff" rx="4" opacity="0.95"/>
      <!-- Line chart -->
      <path d="M20 50 L40 45 L60 40 L80 48 L100 35 L120 42 L140 30 L160 38 L180 32 L200 25" 
            stroke="#4CAF50" stroke-width="2" fill="none"/>
      <circle cx="20" cy="50" r="3" fill="#4CAF50"/>
      <circle cx="40" cy="45" r="3" fill="#4CAF50"/>
      <circle cx="60" cy="40" r="3" fill="#4CAF50"/>
      <circle cx="80" cy="48" r="3" fill="#4CAF50"/>
      <circle cx="100" cy="35" r="3" fill="#4CAF50"/>
      <circle cx="120" cy="42" r="3" fill="#4CAF50"/>
      <circle cx="140" cy="30" r="3" fill="#4CAF50"/>
      <circle cx="160" cy="38" r="3" fill="#4CAF50"/>
      <circle cx="180" cy="32" r="3" fill="#4CAF50"/>
      <circle cx="200" cy="25" r="3" fill="#4CAF50"/>
    </g>
  </g>
  
  <!-- Floating elements -->
  <!-- Cloud 1 -->
  <g transform="translate(50, 50)" opacity="0.6">
    <ellipse cx="30" cy="20" rx="20" ry="12" fill="#90CAF9"/>
    <ellipse cx="45" cy="18" rx="18" ry="10" fill="#90CAF9"/>
    <ellipse cx="15" cy="22" rx="15" ry="8" fill="#90CAF9"/>
  </g>
  
  <!-- Cloud 2 -->
  <g transform="translate(370, 80)" opacity="0.6">
    <ellipse cx="30" cy="20" rx="18" ry="10" fill="#90CAF9"/>
    <ellipse cx="43" cy="19" rx="15" ry="9" fill="#90CAF9"/>
    <ellipse cx="18" cy="21" rx="12" ry="7" fill="#90CAF9"/>
  </g>
  
  <!-- Checkmark badge -->
  <g transform="translate(360, 260)">
    <circle cx="40" cy="40" r="35" fill="#4CAF50"/>
    <circle cx="40" cy="40" r="30" fill="#66BB6A"/>
    <path d="M28 40 L36 48 L54 30" stroke="white" stroke-width="4" stroke-linecap="round" stroke-linejoin="round"/>
  </g>
  
  <!-- Database icon -->
  <g transform="translate(40, 280)">
    <ellipse cx="30" cy="15" rx="25" ry="8" fill="#2196F3"/>
    <rect x="5" y="15" width="50" height="20" fill="#2196F3"/>
    <ellipse cx="30" cy="35" rx="25" ry="8" fill="#1976D2"/>
    <ellipse cx="30" cy="25" rx="25" ry="8" fill="#1E88E5"/>
    <path d="M5 15 Q5 20 30 22 Q55 20 55 15" fill="#1976D2"/>
    <path d="M5 25 Q5 30 30 32 Q55 30 55 25" fill="#1565C0"/>
  </g>
  
  <!-- Shield icon -->
  <g transform="translate(420, 30)">
    <path d="M30 5 L50 15 L50 35 C50 47 40 55 30 60 C20 55 10 47 10 35 L10 15 Z" fill="#0078D4"/>
    <path d="M30 10 L45 18 L45 35 C45 44 37.5 50 30 54 C22.5 50 15 44 15 35 L15 18 Z" fill="#00BCF2"/>
    <path d="M24 32 L28 36 L38 24" stroke="white" stroke-width="3" stroke-linecap="round" stroke-linejoin="round"/>
  </g>
</svg>
